<svg xmlns="http://www.w3.org/2000/svg" viewBox="0 0 220 220" role="img" aria-label="OOELFV emblem">
  <defs>
    <linearGradient id="shieldRed" x1="0" y1="0" x2="1" y2="1">
      <stop offset="0%" stop-color="#e11d2f" />
      <stop offset="100%" stop-color="#b70d1d" />
    </linearGradient>
    <linearGradient id="goldTrim" x1="0" y1="0" x2="1" y2="1">
      <stop offset="0%" stop-color="#facc15" />
      <stop offset="100%" stop-color="#f59e0b" />
    </linearGradient>
  </defs>
  <path d="M110 16 188 44v63c0 44.7-29.7 78.8-78 97-48.3-18.2-78-52.3-78-97V44z" fill="url(#goldTrim)"/>
  <path d="M110 28 177 52v55.2c0 38.6-25.7 68.5-67 84.8-41.3-16.3-67-46.2-67-84.8V52z" fill="url(#shieldRed)"/>
  <circle cx="110" cy="92" r="33" fill="#fff"/>
  <path d="M110 64c6.2 0 11.2 5 11.2 11.2V87h11.6c6.2 0 11.2 5 11.2 11.2s-5 11.2-11.2 11.2h-11.6v11.4c0 6.2-5 11.2-11.2 11.2s-11.2-5-11.2-11.2v-11.4H87.2c-6.2 0-11.2-5-11.2-11.2S81 87 87.2 87h11.6V75.2c0-6.2 5-11.2 11.2-11.2Z" fill="#b70d1d"/>
  <text x="110" y="158" text-anchor="middle" font-size="20" font-family="Inter, Arial, sans-serif" font-weight="800" fill="#fff">OOELFV</text>
</svg>
